<svg width="30" height="24" viewBox="0 0 30 24" fill="none" xmlns="http://www.w3.org/2000/svg">
<path d="M26.5966 0.891602H3.54545C1.96069 0.891602 0.678469 2.18823 0.678469 3.77299L0.664062 21.0613C0.664062 22.6461 1.96069 23.9427 3.54545 23.9427H26.5966C28.1813 23.9427 29.4779 22.6461 29.4779 21.0613V3.77299C29.4779 2.18823 28.1813 0.891602 26.5966 0.891602ZM26.0203 7.01455L15.8346 13.3824C15.3735 13.6706 14.7685 13.6706 14.3074 13.3824L4.12173 7.01455C3.97727 6.93346 3.85076 6.82389 3.74987 6.69249C3.64898 6.56109 3.57579 6.41058 3.53475 6.25008C3.49371 6.08957 3.48567 5.92241 3.5111 5.75871C3.53653 5.595 3.59492 5.43816 3.68272 5.29768C3.77053 5.15719 3.88592 5.03598 4.02193 4.94139C4.15793 4.84679 4.31171 4.78077 4.47397 4.74733C4.63623 4.71389 4.80358 4.71371 4.96591 4.74682C5.12823 4.77993 5.28215 4.84563 5.41835 4.93995L15.071 10.9765L24.7237 4.93995C24.8599 4.84563 25.0138 4.77993 25.1761 4.74682C25.3384 4.71371 25.5058 4.71389 25.668 4.74733C25.8303 4.78077 25.9841 4.84679 26.1201 4.94139C26.2561 5.03598 26.3715 5.15719 26.4593 5.29768C26.5471 5.43816 26.6055 5.595 26.6309 5.75871C26.6563 5.92241 26.6483 6.08957 26.6073 6.25008C26.5662 6.41058 26.493 6.56109 26.3921 6.69249C26.2912 6.82389 26.1647 6.93346 26.0203 7.01455Z" fill="white"/>
</svg>
