<svg width="35" height="35" viewBox="0 0 35 35" fill="none" xmlns="http://www.w3.org/2000/svg">
<path fill-rule="evenodd" clip-rule="evenodd" d="M17.5145 0C7.82942 0 0 7.88715 0 17.6446C0 25.4443 5.01658 32.0465 11.9759 34.3833C12.846 34.559 13.1647 34.0036 13.1647 33.5365C13.1647 33.1274 13.136 31.7253 13.136 30.2644C8.26393 31.3163 7.24936 28.1611 7.24936 28.1611C6.46638 26.1161 5.30626 25.5906 5.30626 25.5906C3.71162 24.5097 5.42241 24.5097 5.42241 24.5097C7.19128 24.6265 8.11946 26.3208 8.11946 26.3208C9.68505 29.0082 12.2079 28.2489 13.2228 27.7814C13.3676 26.6421 13.8319 25.8533 14.3248 25.4152C10.439 25.0062 6.35059 23.4872 6.35059 16.7096C6.35059 14.7816 7.04609 13.2042 8.14814 11.9773C7.97426 11.5393 7.36516 9.72772 8.32237 7.30314C8.32237 7.30314 9.80121 6.83565 13.1357 9.11431C14.5633 8.72808 16.0356 8.5316 17.5145 8.52995C18.9933 8.52995 20.5008 8.73465 21.8929 9.11431C25.2277 6.83565 26.7066 7.30314 26.7066 7.30314C27.6638 9.72772 27.0543 11.5393 26.8805 11.9773C28.0116 13.2042 28.6784 14.7816 28.6784 16.7096C28.6784 23.4872 24.59 24.9768 20.6751 25.4152C21.3132 25.9702 21.8639 27.0217 21.8639 28.687C21.8639 31.0531 21.8352 32.9521 21.8352 33.5361C21.8352 34.0036 22.1543 34.559 23.024 34.3836C29.9833 32.0462 34.9999 25.4443 34.9999 17.6446C35.0286 7.88715 27.1705 0 17.5145 0Z" fill="#24292F"/>
</svg>
