<svg width="24" height="24" viewBox="0 0 24 24" fill="none" xmlns="http://www.w3.org/2000/svg">
<g clip-path="url(#clip0_588_2489)">
<path d="M17.9688 0.100098H5.72291C2.73914 0.100098 0.320312 2.51893 0.320312 5.5027V17.7486C0.320312 20.7324 2.73914 23.1512 5.72291 23.1512H17.9688C20.9526 23.1512 23.3714 20.7324 23.3714 17.7486V5.5027C23.3714 2.51893 20.9526 0.100098 17.9688 0.100098Z" fill="url(#paint0_radial_588_2489)"/>
<path d="M17.9688 0.100098H5.72291C2.73914 0.100098 0.320312 2.51893 0.320312 5.5027V17.7486C0.320312 20.7324 2.73914 23.1512 5.72291 23.1512H17.9688C20.9526 23.1512 23.3714 20.7324 23.3714 17.7486V5.5027C23.3714 2.51893 20.9526 0.100098 17.9688 0.100098Z" fill="url(#paint1_radial_588_2489)"/>
<path d="M11.845 2.62061C9.39959 2.62061 9.09264 2.63132 8.13223 2.67499C7.17363 2.71893 6.51929 2.87066 5.94679 3.09333C5.35449 3.3233 4.85213 3.63098 4.35167 4.13162C3.85076 4.63217 3.54308 5.13453 3.31239 5.72656C3.08908 6.29924 2.93718 6.95385 2.89405 7.912C2.8511 8.8725 2.83984 9.17955 2.83984 11.625C2.83984 14.0705 2.85065 14.3765 2.89423 15.3369C2.93835 16.2955 3.09007 16.9498 3.31257 17.5223C3.54272 18.1146 3.8504 18.617 4.35104 19.1175C4.85141 19.6184 5.35377 19.9268 5.94562 20.1567C6.51857 20.3794 7.173 20.5311 8.13142 20.5751C9.09192 20.6187 9.3986 20.6295 11.8439 20.6295C14.2896 20.6295 14.5955 20.6187 15.556 20.5751C16.5146 20.5311 17.1696 20.3794 17.7426 20.1567C18.3346 19.9268 18.8362 19.6184 19.3365 19.1175C19.8374 18.617 20.145 18.1146 20.3758 17.5226C20.5971 16.9498 20.7491 16.2953 20.7941 15.3371C20.8373 14.3767 20.8485 14.0705 20.8485 11.625C20.8485 9.17955 20.8373 8.87268 20.7941 7.91218C20.7491 6.95358 20.5971 6.29933 20.3758 5.72683C20.145 5.13453 19.8374 4.63217 19.3365 4.13162C18.8357 3.6308 18.3348 3.32312 17.742 3.09342C17.168 2.87066 16.5133 2.71884 15.5547 2.67499C14.5942 2.63132 14.2884 2.62061 11.8422 2.62061H11.845ZM11.0372 4.24328C11.277 4.24292 11.5445 4.24328 11.845 4.24328C14.2492 4.24328 14.5341 4.25192 15.4836 4.29505C16.3615 4.33521 16.838 4.48189 17.1554 4.60516C17.5756 4.76832 17.8752 4.96344 18.1902 5.27869C18.5053 5.59384 18.7004 5.89395 18.864 6.31418C18.9872 6.63114 19.1341 7.10765 19.1741 7.98557C19.2172 8.93481 19.2266 9.21988 19.2266 11.623C19.2266 14.026 19.2172 14.3112 19.1741 15.2604C19.1339 16.1383 18.9872 16.6148 18.864 16.9318C18.7008 17.3521 18.5053 17.6513 18.1902 17.9662C17.875 18.2814 17.5758 18.4764 17.1554 18.6397C16.8383 18.7635 16.3615 18.9098 15.4836 18.95C14.5343 18.9931 14.2492 19.0025 11.845 19.0025C9.44065 19.0025 9.15567 18.9931 8.20652 18.95C7.3286 18.9095 6.85209 18.7628 6.53441 18.6395C6.11427 18.4763 5.81407 18.2812 5.49891 17.9661C5.18376 17.6509 4.98873 17.3515 4.82512 16.9311C4.70185 16.6141 4.55499 16.1376 4.51501 15.2596C4.47188 14.3104 4.46324 14.0253 4.46324 11.6207C4.46324 9.2161 4.47188 8.93256 4.51501 7.98332C4.55517 7.1054 4.70185 6.62889 4.82512 6.31148C4.98837 5.89125 5.18376 5.59114 5.49901 5.27599C5.81425 4.96083 6.11427 4.76571 6.5345 4.60219C6.85191 4.47838 7.3286 4.33206 8.20652 4.29172C9.03717 4.25417 9.35907 4.24292 11.0372 4.24103V4.24328ZM16.6515 5.73836C16.055 5.73836 15.571 6.22189 15.571 6.81852C15.571 7.41506 16.055 7.89904 16.6515 7.89904C17.248 7.89904 17.732 7.41506 17.732 6.81852C17.732 6.22198 17.248 5.738 16.6515 5.738V5.73836ZM11.845 7.00086C9.29136 7.00086 7.2209 9.07131 7.2209 11.625C7.2209 14.1788 9.29136 16.2482 11.845 16.2482C14.3987 16.2482 16.4684 14.1788 16.4684 11.625C16.4684 9.0714 14.3985 7.00086 11.8448 7.00086H11.845ZM11.845 8.62353C13.5026 8.62353 14.8465 9.96725 14.8465 11.625C14.8465 13.2826 13.5026 14.6265 11.845 14.6265C10.1874 14.6265 8.84358 13.2826 8.84358 11.625C8.84358 9.96725 10.1873 8.62353 11.845 8.62353Z" fill="white"/>
</g>
<defs>
<radialGradient id="paint0_radial_588_2489" cx="0" cy="0" r="1" gradientUnits="userSpaceOnUse" gradientTransform="translate(6.44326 24.9266) rotate(-90) scale(22.8454 21.248)">
<stop stop-color="#FFDD55"/>
<stop offset="0.1" stop-color="#FFDD55"/>
<stop offset="0.5" stop-color="#FF543E"/>
<stop offset="1" stop-color="#C837AB"/>
</radialGradient>
<radialGradient id="paint1_radial_588_2489" cx="0" cy="0" r="1" gradientUnits="userSpaceOnUse" gradientTransform="translate(-3.54084 1.76059) rotate(78.681) scale(10.212 42.0942)">
<stop stop-color="#3771C8"/>
<stop offset="0.128" stop-color="#3771C8"/>
<stop offset="1" stop-color="#6600FF" stop-opacity="0"/>
</radialGradient>
<clipPath id="clip0_588_2489">
<rect width="23.0511" height="23.0511" fill="white" transform="translate(0.320312 0.0991211)"/>
</clipPath>
</defs>
</svg>
