<svg width="24" height="24" viewBox="0 0 24 24" fill="none" xmlns="http://www.w3.org/2000/svg">
<g clip-path="url(#clip0_588_2494)">
<path d="M18.4571 0.100098H6.2112C3.22742 0.100098 0.808594 2.51893 0.808594 5.5027V17.7486C0.808594 20.7324 3.22742 23.1512 6.2112 23.1512H18.4571C21.4409 23.1512 23.8597 20.7324 23.8597 17.7486V5.5027C23.8597 2.51893 21.4409 0.100098 18.4571 0.100098Z" fill="white"/>
<path d="M18.4571 0.100098H6.2112C3.22742 0.100098 0.808594 2.51893 0.808594 5.5027V17.7486C0.808594 20.7324 3.22742 23.1512 6.2112 23.1512H18.4571C21.4409 23.1512 23.8597 20.7324 23.8597 17.7486V5.5027C23.8597 2.51893 21.4409 0.100098 18.4571 0.100098Z" fill="#0A66C2"/>
<path d="M17.4451 19.7004H20.0807C20.1762 19.7004 20.2678 19.6625 20.3353 19.595C20.4029 19.5275 20.4408 19.4359 20.4408 19.3404L20.4422 13.7719C20.4422 10.8614 19.815 8.62429 16.4138 8.62429C15.1209 8.57621 13.9016 9.24271 13.2437 10.3556C13.2404 10.3611 13.2356 10.3653 13.2297 10.3676C13.2239 10.37 13.2174 10.3704 13.2114 10.3687C13.2053 10.3671 13.1999 10.3635 13.1961 10.3585C13.1922 10.3535 13.1901 10.3474 13.1901 10.3412V9.25316C13.1901 9.15763 13.1521 9.06602 13.0846 8.99848C13.0171 8.93093 12.9254 8.89298 12.8299 8.89298H10.3288C10.2333 8.89298 10.1416 8.93093 10.0741 8.99848C10.0066 9.06602 9.96861 9.15763 9.96861 9.25316V19.3398C9.96861 19.4353 10.0066 19.527 10.0741 19.5945C10.1416 19.662 10.2333 19.7 10.3288 19.7H12.9642C13.0597 19.7 13.1513 19.662 13.2189 19.5945C13.2864 19.527 13.3243 19.4353 13.3243 19.3398V14.3538C13.3243 12.944 13.5918 11.5787 15.3396 11.5787C17.0626 11.5787 17.0849 13.1919 17.0849 14.4451V19.3403C17.0849 19.4358 17.1229 19.5274 17.1904 19.5949C17.258 19.6625 17.3496 19.7004 17.4451 19.7004ZM4.23438 5.46845C4.23438 6.53673 5.11383 7.41573 6.18219 7.41573C7.25029 7.41564 8.1292 6.5361 8.1292 5.468C8.12902 4.39991 7.25002 3.521 6.18183 3.521C5.11338 3.521 4.23438 4.40018 4.23438 5.46845ZM4.86099 19.7004H7.49989C7.59541 19.7004 7.68702 19.6625 7.75457 19.5949C7.82211 19.5274 7.86006 19.4358 7.86006 19.3403V9.25316C7.86006 9.15763 7.82211 9.06602 7.75457 8.99848C7.68702 8.93093 7.59541 8.89298 7.49989 8.89298H4.86099C4.76546 8.89298 4.67385 8.93093 4.60631 8.99848C4.53876 9.06602 4.50081 9.15763 4.50081 9.25316V19.3403C4.50081 19.4358 4.53876 19.5274 4.60631 19.5949C4.67385 19.6625 4.76546 19.7004 4.86099 19.7004Z" fill="white"/>
</g>
<defs>
<clipPath id="clip0_588_2494">
<rect width="23.0511" height="23.0511" fill="white" transform="translate(0.808594 0.0991211)"/>
</clipPath>
</defs>
</svg>
